# xmcd
#
# Track frame offsets:
#	150
#	18589
#	30380
#	44044
#	53492
#	61581
#	75109
#	84143
#	94555
#	107853
#	119719
#
# Disc length: 1759 seconds
# Revision: 1
# Processed by: cddbd v1.5.2PL0 Copyright (c) Steve Scherf et al.
# Submitted via: dBpowerAMP V12.0
#
DISCID=7706dd0b
DTITLE=Johnny Cash - The Box Set Series
DYEAR=2013
DGENRE=Country
TTITLE0=The Big Battle
TTITLE1=When the Roses Bloom Again
TTITLE2=Delia's Gone [Alternate]
TTITLE3=I Got Stripes
TTITLE4=Five Feet High and Rising
TTITLE5=Tennessee Flat-Top Box
TTITLE6=Sing it Pretty, Sue
TTITLE7=Busted
TTITLE8=Bad News
TTITLE9=Ring of Fire
TTITLE10=Understand Your Man
EXTD=
EXTT0=
EXTT1=
EXTT2=
EXTT3=
EXTT4=
EXTT5=
EXTT6=
EXTT7=
EXTT8=
EXTT9=
EXTT10=
PLAYORDER=
